<svg width="47" height="22" viewBox="0 0 47 22" fill="none" xmlns="http://www.w3.org/2000/svg">
<path fill-rule="evenodd" clip-rule="evenodd" d="M6.47111e-06 7.18229C-0.000188724 6.63325 0.110519 6.08956 0.325805 5.58224C0.541091 5.07493 0.856735 4.61392 1.25473 4.22556C1.65272 3.8372 2.12527 3.52909 2.64538 3.31881C3.16548 3.10853 3.72298 3.00019 4.28602 3H40.7095C41.8471 3.00038 42.9379 3.44109 43.7424 4.2253C44.5469 5.0095 44.9992 6.07306 45 7.18229V17.8221C45.0002 18.3713 44.8893 18.9151 44.6737 19.4225C44.4581 19.9298 44.142 20.3907 43.7434 20.7788C43.3449 21.1669 42.8718 21.4745 42.3512 21.684C41.8306 21.8936 41.2728 22.0009 40.7095 22H4.28602C3.72297 22.0011 3.16521 21.8939 2.64478 21.6843C2.12434 21.4748 1.65146 21.1671 1.25326 20.779C0.855051 20.3908 0.539362 19.9298 0.324299 19.4223C0.109236 18.9149 -0.000972953 18.3711 6.47111e-06 17.8221V7.18229Z" fill="#252525"/>
<path fill-rule="evenodd" clip-rule="evenodd" d="M1 4.28207V14.7179C1 15.2803 1.1174 15.8371 1.34549 16.3566C1.57357 16.8761 1.90788 17.3482 2.32932 17.7458C2.75076 18.1434 3.25109 18.4589 3.80173 18.6741C4.35237 18.8892 4.94253 19 5.53854 19H42.457C43.0533 19.0006 43.644 18.8902 44.1952 18.6753C44.7463 18.4603 45.2472 18.145 45.6691 17.7473C46.091 17.3496 46.4257 16.8774 46.6541 16.3576C46.8825 15.8378 47 15.2806 47 14.7179V4.28207C47 3.71939 46.8825 3.16221 46.6541 2.6424C46.4257 2.1226 46.091 1.65036 45.6691 1.25268C45.2472 0.854993 44.7463 0.539677 44.1952 0.324734C43.644 0.10979 43.0533 -0.000558138 42.457 2.12274e-06H5.53854C4.94253 2.12274e-06 4.35237 0.110754 3.80173 0.325948C3.25109 0.541142 2.75076 0.856559 2.32932 1.25419C1.90788 1.65181 1.57357 2.12387 1.34549 2.64339C1.1174 3.16292 1 3.71974 1 4.28207ZM1.38713 4.28207C1.38674 3.76754 1.49383 3.25797 1.7023 2.78251C1.91077 2.30705 2.21653 1.87502 2.60208 1.51112C2.98764 1.14722 3.44543 0.858592 3.94929 0.66173C4.45316 0.464869 4.99319 0.363633 5.53854 0.36382H42.457C43.5587 0.36382 44.6153 0.776543 45.3946 1.51127C46.1739 2.24601 46.6121 3.24263 46.6129 4.28207V14.7179C46.6125 15.2325 46.5047 15.7419 46.2956 16.2172C46.0865 16.6924 45.7803 17.1241 45.3944 17.4877C45.0085 17.8513 44.5504 18.1396 44.0464 18.3362C43.5424 18.5327 43.0023 18.6337 42.457 18.6333H5.53854C4.99339 18.6337 4.45351 18.5327 3.94975 18.3361C3.446 18.1395 2.98826 17.8511 2.60271 17.4875C2.21715 17.1238 1.91134 16.6921 1.70276 16.2168C1.49418 15.7416 1.38694 15.2323 1.38713 14.7179V4.28207Z" fill="black"/>
<path d="M10 6.00491H11.6519L16.9482 12.396H16.9838V6H18.7501V14.9951H17.0804L11.8031 8.60526H11.7676V14.9951H10V6.00491ZM20.4376 6.00491H27.9017V7.29587H22.2051V9.94901H27.0605V11.159H22.2051V15H20.4376V6.00491ZM32.0201 7.22102H28.823V6.00491H37V7.22102H33.8029V15H32.0239L32.0201 7.22102Z" fill="white"/>
</svg>
