<svg width="506" height="229" viewBox="0 0 506 229" fill="none" xmlns="http://www.w3.org/2000/svg">
<path d="M388.841 5.57847C427.963 -12.7642 467.189 18.4921 481.912 36.4132C553.138 123.11 447.198 181.531 377.799 174.774C318.499 169 278.024 181.494 210.192 200.469C155.927 215.65 116.008 221.843 89.91 206.004C70.5861 194.276 30.834 162.361 26.4171 128.522C20.8959 86.223 76.0078 42.7132 103.713 36.4132C164.937 22.4913 180.615 83.8511 214.531 79.8979C248.446 75.9448 339.94 28.5068 388.841 5.57847Z" fill="url(#paint0_linear_1974_5363)"/>
<path d="M245.508 140.072C237.436 141.093 229.933 143.928 224.379 148.057C218.874 152.15 215.903 157.053 215.966 161.91V161.913L215.741 168.185C215.73 168.538 215.732 168.891 215.75 169.244C216.021 174.588 219.634 179.104 225.922 181.961C231.906 184.679 239.692 185.609 247.847 184.578C256.002 183.546 263.595 180.672 269.228 176.484C275.148 172.083 278.258 166.717 277.987 161.374C277.969 161.021 277.936 160.671 277.889 160.327L277.13 154.762C277.108 154.711 277.083 154.662 277.059 154.613C276.834 151.142 275.038 147.972 271.852 145.438C265.942 140.737 256.095 138.732 245.508 140.072ZM220.096 154.96C220.183 154.829 220.271 154.698 220.363 154.569C220.271 154.698 220.183 154.829 220.096 154.96ZM220.604 154.24C220.699 154.112 220.795 153.985 220.895 153.858C220.795 153.985 220.699 154.112 220.604 154.24ZM218.846 157.214C218.915 157.061 218.981 156.907 219.056 156.755C218.981 156.908 218.915 157.062 218.846 157.214ZM219.22 156.439C219.292 156.298 219.364 156.158 219.443 156.018C219.364 156.158 219.292 156.299 219.22 156.439ZM219.634 155.692C219.714 155.558 219.793 155.423 219.879 155.29C219.793 155.423 219.714 155.558 219.634 155.692ZM221.157 153.532C221.26 153.407 221.364 153.282 221.471 153.157C221.364 153.281 221.26 153.406 221.157 153.532ZM221.756 152.834C221.867 152.712 221.979 152.589 222.094 152.467C221.98 152.589 221.867 152.712 221.756 152.834ZM272.441 148.481C272.457 148.498 272.473 148.514 272.488 148.531C272.474 148.515 272.457 148.498 272.441 148.481ZM272.983 149.126C272.989 149.135 272.996 149.143 273.003 149.152C272.996 149.143 272.989 149.135 272.983 149.126ZM239.398 143.06C239.626 143 239.857 142.944 240.088 142.887C239.857 142.944 239.626 143.001 239.398 143.06ZM235.826 144.143C236.037 144.069 236.25 143.998 236.463 143.927C236.25 143.999 236.038 144.07 235.826 144.143ZM236.993 143.755C237.209 143.687 237.427 143.62 237.646 143.553C237.427 143.62 237.21 143.687 236.993 143.755ZM238.184 143.394C238.406 143.33 238.63 143.268 238.854 143.207C238.63 143.268 238.406 143.33 238.184 143.394ZM245.754 141.836C245.316 141.892 244.881 141.952 244.448 142.019C244.881 141.952 245.316 141.892 245.754 141.836ZM244.013 142.09C243.728 142.136 243.442 142.182 243.158 142.233C243.441 142.182 243.728 142.136 244.013 142.09ZM242.648 142.331C242.393 142.379 242.137 142.427 241.885 142.479C242.139 142.427 242.394 142.379 242.648 142.331ZM241.351 142.595C241.11 142.648 240.87 142.7 240.631 142.756C240.87 142.7 241.11 142.648 241.351 142.595ZM235.305 144.328C235.097 144.404 234.889 144.48 234.683 144.557C234.889 144.479 235.097 144.402 235.305 144.328ZM234.174 144.752C233.969 144.832 233.766 144.914 233.565 144.996C233.768 144.914 233.969 144.832 234.174 144.752ZM233.072 145.2C232.869 145.286 232.669 145.373 232.47 145.462C232.67 145.374 232.87 145.286 233.072 145.2ZM231.998 145.672C231.797 145.764 231.599 145.858 231.402 145.952C231.599 145.858 231.796 145.764 231.998 145.672ZM230.953 146.167C230.75 146.266 230.55 146.369 230.351 146.471C230.551 146.369 230.75 146.266 230.953 146.167ZM229.938 146.683C229.723 146.796 229.514 146.912 229.303 147.029C229.514 146.912 229.724 146.796 229.938 146.683ZM228.957 147.219C228.668 147.382 228.384 147.55 228.104 147.719C228.384 147.55 228.668 147.383 228.957 147.219ZM228.008 147.775C227.698 147.963 227.395 148.154 227.098 148.349C227.395 148.154 227.698 147.963 228.008 147.775ZM222.398 152.151C222.516 152.029 222.639 151.908 222.761 151.789C222.639 151.908 222.516 152.029 222.398 152.151ZM223.082 151.479C223.21 151.36 223.34 151.241 223.471 151.122C223.34 151.241 223.209 151.36 223.082 151.479ZM223.807 150.822C223.944 150.703 224.085 150.585 224.225 150.468C224.084 150.585 223.944 150.704 223.807 150.822ZM224.573 150.18C224.721 150.061 224.872 149.943 225.024 149.826C224.872 149.943 224.72 150.061 224.573 150.18ZM225.376 149.552C225.538 149.431 225.705 149.312 225.871 149.193C225.705 149.312 225.538 149.432 225.376 149.552ZM226.219 148.943C226.406 148.812 226.598 148.684 226.789 148.556C226.598 148.684 226.405 148.811 226.219 148.943ZM218.72 157.498C218.636 157.701 218.561 157.905 218.488 158.109C218.56 157.905 218.636 157.701 218.72 157.498ZM273.471 149.802C273.454 149.777 273.438 149.751 273.42 149.727C273.438 149.751 273.454 149.777 273.471 149.802ZM273.853 150.408C273.852 150.406 273.85 150.403 273.849 150.4C273.85 150.403 273.852 150.406 273.853 150.408ZM271.983 147.994C271.934 147.944 271.882 147.894 271.832 147.844C271.882 147.894 271.934 147.944 271.983 147.994ZM271.417 147.454C271.362 147.405 271.308 147.354 271.253 147.305C271.308 147.354 271.362 147.405 271.417 147.454Z" fill="black"/>
<path d="M270.654 146.802C265.141 142.418 255.832 140.561 245.754 141.836C231.302 143.664 219.623 151.435 218.02 159.804C217.864 160.619 217.803 161.439 217.845 162.261C217.998 165.286 219.573 168.071 222.397 170.316C227.91 174.699 237.219 176.557 247.296 175.281C263.155 173.276 275.674 164.116 275.205 154.857C275.051 151.833 273.478 149.048 270.654 146.802Z" fill="white"/>
<path d="M263.633 150.035C259.796 146.983 253.036 145.642 245.992 146.533C235.749 147.828 227.47 153.305 226.342 159.194C226.233 159.763 226.191 160.334 226.22 160.908C226.326 163.003 227.421 164.937 229.387 166.499C233.224 169.55 239.983 170.892 247.028 170.001C258.261 168.581 267.13 162.134 266.8 155.626C266.694 153.531 265.599 151.597 263.633 150.035Z" fill="white"/>
<path d="M245.746 144.767C239.916 145.503 234.492 147.554 230.476 150.54C226.342 153.614 224.169 157.325 224.355 160.993C224.487 163.599 225.814 165.975 228.192 167.865C232.482 171.276 239.615 172.735 247.275 171.766C253.105 171.029 258.529 168.978 262.546 165.992C265.889 163.506 267.951 160.602 268.518 157.641C268.652 156.943 268.703 156.24 268.667 155.54C268.535 152.934 267.208 150.557 264.83 148.667C260.54 145.256 253.406 143.798 245.746 144.767ZM247.028 169.999C239.985 170.89 233.226 169.548 229.387 166.497C227.422 164.935 226.327 163.001 226.221 160.906C226.191 160.333 226.234 159.761 226.343 159.192C227.471 153.303 235.749 147.826 245.993 146.531C253.036 145.64 259.796 146.982 263.634 150.033C265.599 151.595 266.695 153.53 266.801 155.624C267.131 162.132 258.261 168.579 247.028 169.999Z" fill="black"/>
<path d="M245.878 153.378L245.82 153.384C245.111 151.1 243.543 150.166 241.812 150.331C240.054 150.499 238.682 151.681 237.9 153.209C237.39 154.116 237.063 155.086 236.852 156.28L233.894 156.562L233.801 158.772L236.599 158.505C236.578 158.821 236.56 159.151 236.545 159.497C236.524 160.005 236.511 160.52 236.504 161.027L233.695 161.295L233.602 163.503L236.521 163.225C236.551 164.188 236.608 165.02 236.691 165.58L255.78 163.761C255.884 163.167 255.998 162.359 256.096 161.361L258.636 161.118L258.729 158.911L256.259 159.145C256.268 158.969 256.277 158.791 256.285 158.607C256.315 157.898 256.323 157.241 256.313 156.626L258.837 156.386L258.93 154.176L256.175 154.439C255.962 152.655 255.516 151.398 254.873 150.539C253.948 149.328 252.599 148.59 250.841 148.758C248.331 148.998 246.585 150.928 245.878 153.378ZM239.802 160.611C239.76 160.213 239.728 159.628 239.771 158.603C239.86 156.458 240.691 155.172 242.161 155.033C243.602 154.895 244.498 156.141 244.394 158.626L244.329 160.18L239.802 160.611ZM253.086 157.519C253.052 158.327 253.029 158.886 252.951 159.358L247.471 159.88L247.54 158.264C247.638 155.904 248.498 153.934 250.458 153.747C252.505 153.551 253.175 155.376 253.086 157.519Z" fill="black"/>
<path d="M291.406 156.098L295.144 170.688L310.912 174.761L307.175 160.172L291.406 156.098Z" fill="white"/>
<path d="M313.098 175.805L308.855 159.241C308.775 158.926 308.521 158.679 308.193 158.593L290.366 153.988C290.047 153.906 289.706 153.99 289.47 154.21C289.233 154.43 289.136 154.753 289.214 155.058L293.457 171.622C293.538 171.937 293.791 172.185 294.119 172.27L311.946 176.875C312.027 176.897 312.108 176.906 312.19 176.906C312.431 176.906 312.665 176.818 312.842 176.653C313.079 176.434 313.176 176.111 313.098 175.805ZM295.14 170.689L291.403 156.1L307.171 160.174L310.908 174.763L295.14 170.689Z" fill="black"/>
<path d="M308.988 159.75L312.726 174.34L324.75 163.8L321.013 149.211L308.988 159.75Z" fill="white"/>
<path d="M326.694 163.887L322.451 147.323C322.372 147.018 322.13 146.774 321.814 146.682C321.498 146.592 321.155 146.666 320.911 146.879L307.317 158.796C307.067 159.015 306.962 159.347 307.042 159.662L311.285 176.226C311.363 176.531 311.605 176.775 311.921 176.867C312.01 176.892 312.102 176.905 312.192 176.905C312.422 176.905 312.649 176.823 312.824 176.67L326.418 164.754C326.669 164.534 326.774 164.202 326.694 163.887ZM312.724 174.34L308.987 159.751L321.012 149.21L324.749 163.799L312.724 174.34Z" fill="black"/>
<path d="M304.006 144.047L292.016 154.413L307.699 158.465L319.658 147.981L304.006 144.047Z" fill="white"/>
<path d="M322.45 147.321C322.368 147.006 322.111 146.757 321.782 146.675L303.989 142.202C303.682 142.124 303.357 142.201 303.123 142.404L289.494 154.187C289.24 154.406 289.134 154.738 289.213 155.054C289.293 155.37 289.547 155.62 289.877 155.706L307.704 160.311C307.784 160.332 307.866 160.342 307.948 160.342C308.179 160.342 308.405 160.26 308.58 160.107L322.174 148.19C322.426 147.97 322.532 147.637 322.45 147.321ZM292.013 154.412L304.002 144.046L319.655 147.981L307.696 158.464L292.013 154.412Z" fill="black"/>
<path d="M194.762 207.406L198.33 222.034L214.051 226.273L210.482 211.644L194.762 207.406Z" fill="white"/>
<path d="M216.228 227.338L212.175 210.73C212.098 210.414 211.847 210.164 211.52 210.076L193.747 205.283C193.43 205.198 193.088 205.279 192.848 205.496C192.609 205.713 192.508 206.035 192.582 206.342L196.635 222.949C196.712 223.265 196.963 223.515 197.29 223.604L215.063 228.396C215.147 228.419 215.232 228.429 215.318 228.429C215.554 228.429 215.786 228.343 215.962 228.184C216.202 227.966 216.301 227.644 216.228 227.338ZM198.329 222.034L194.761 207.407L210.481 211.646L214.049 226.273L198.329 222.034Z" fill="black"/>
<path d="M212.301 211.242L215.87 225.87L228.015 215.456L224.446 200.828L212.301 211.242Z" fill="white"/>
<path d="M229.959 215.566L225.907 198.958C225.832 198.652 225.593 198.405 225.277 198.311C224.963 198.216 224.619 198.287 224.372 198.498L210.641 210.272C210.389 210.488 210.279 210.819 210.356 211.134L214.409 227.742C214.484 228.049 214.722 228.295 215.038 228.389C215.13 228.417 215.224 228.431 215.319 228.431C215.546 228.431 215.769 228.352 215.943 228.202L229.674 216.429C229.927 216.212 230.037 215.882 229.959 215.566ZM215.87 225.871L212.301 211.243L224.446 200.829L228.015 215.457L215.87 225.871Z" fill="black"/>
<path d="M207.499 195.484L195.391 205.724L211.026 209.941L223.105 199.583L207.499 195.484Z" fill="white"/>
<path d="M225.905 198.954C225.827 198.638 225.573 198.387 225.244 198.3L207.503 193.641C207.198 193.561 206.872 193.634 206.636 193.834L192.872 205.474C192.617 205.69 192.506 206.021 192.582 206.338C192.658 206.655 192.909 206.907 193.239 206.996L211.012 211.788C211.096 211.81 211.181 211.821 211.266 211.821C211.494 211.821 211.717 211.742 211.891 211.593L225.621 199.819C225.875 199.603 225.983 199.271 225.905 198.954ZM195.389 205.726L207.498 195.486L223.103 199.584L211.024 209.941L195.389 205.726Z" fill="black"/>
<path d="M197.977 130.74L212.281 138.262V123.245L197.977 115.723V130.74Z" fill="white"/>
<path d="M213.666 121.938L197.494 113.435C197.205 113.283 196.853 113.287 196.569 113.448C196.284 113.608 196.109 113.899 196.109 114.214V131.264C196.109 131.589 196.294 131.887 196.592 132.044L212.764 140.547C212.904 140.621 213.06 140.658 213.216 140.658C213.379 140.658 213.544 140.617 213.691 140.535C213.975 140.374 214.15 140.083 214.15 139.768V122.718C214.149 122.393 213.964 122.095 213.666 121.938ZM212.281 138.261L197.976 130.739V115.721L212.281 123.243V138.261Z" fill="black"/>
<path d="M214.148 138.262L228.452 130.74V115.723L214.148 123.245V138.262Z" fill="white"/>
<path d="M229.862 113.448C229.577 113.287 229.224 113.283 228.936 113.436L212.764 121.939C212.466 122.096 212.281 122.394 212.281 122.719V139.77C212.281 140.085 212.456 140.376 212.741 140.536C212.888 140.619 213.051 140.66 213.216 140.66C213.372 140.66 213.526 140.624 213.667 140.549L229.839 132.046C230.137 131.889 230.322 131.591 230.322 131.266V114.214C230.321 113.899 230.146 113.609 229.862 113.448ZM228.453 130.74L214.148 138.262V123.244L228.453 115.722V130.74Z" fill="black"/>
<path d="M213.215 106.859L198.988 114.22L213.215 121.701L227.442 114.22L213.215 106.859Z" fill="white"/>
<path d="M229.832 113.432L213.661 105.065C213.383 104.921 213.048 104.921 212.77 105.065L196.598 113.432C196.299 113.587 196.111 113.886 196.109 114.211C196.108 114.536 196.293 114.835 196.592 114.993L212.764 123.497C212.904 123.571 213.06 123.608 213.216 123.608C213.371 123.608 213.526 123.572 213.667 123.497L229.839 114.993C230.138 114.836 230.323 114.536 230.322 114.211C230.32 113.886 230.133 113.587 229.832 113.432ZM198.988 114.22L213.216 106.859L227.443 114.22L213.216 121.7L198.988 114.22Z" fill="black"/>
<path d="M206.062 126.95C206.039 126.459 205.614 126.084 205.086 126.102C204.571 126.125 204.173 126.542 204.196 127.032L207.875 202.212C207.899 202.689 208.312 203.061 208.808 203.061C208.822 203.061 208.837 203.061 208.851 203.06C209.367 203.037 209.765 202.62 209.741 202.13L206.062 126.95ZM305.576 149.55L221.564 126.137C221.067 126 220.55 126.271 220.405 126.742C220.26 127.214 220.544 127.707 221.039 127.846L305.051 151.259C305.139 151.284 305.227 151.295 305.313 151.295C305.718 151.295 306.09 151.043 306.21 150.655C306.354 150.183 306.071 149.688 305.576 149.55ZM301.948 164.956C301.674 164.541 301.096 164.415 300.66 164.678L220.597 212.727C220.16 212.989 220.03 213.539 220.304 213.955C220.481 214.223 220.785 214.37 221.095 214.37C221.266 214.37 221.437 214.326 221.592 214.233L301.656 166.184C302.093 165.922 302.224 165.372 301.948 164.956Z" fill="black"/>
<path d="M356.507 150.289C356.171 150.22 355.847 150.127 355.536 150.01C353.486 149.242 352.178 147.448 352.039 145.208C351.862 142.374 353.52 139.614 356.264 138.175C358.698 136.899 362.663 136.329 367.253 135.668C371.414 135.069 376.085 134.397 380.308 133.06C383.061 129.16 383.469 125.941 381.516 123.459C378.715 119.898 370.945 117.798 360.732 117.84C359.109 117.847 357.487 117.909 355.891 118.019C354.184 120.288 352.297 121.962 350.643 123.155C346.841 125.899 342.176 127.626 338.163 127.775C335.381 127.879 333.553 127.157 333.147 125.792C332.721 124.362 333.932 122.779 336.743 121.088C340.539 118.807 347.479 117.109 355.026 116.503C356.718 114.114 358.059 111.238 358.805 107.822C359.563 104.35 359.179 102.083 357.666 101.087C351.561 97.0614 328.737 111.523 320.459 117.436C320.103 117.689 319.61 117.607 319.357 117.252C319.104 116.896 319.186 116.404 319.541 116.15C319.617 116.096 327.227 110.678 335.705 105.968C347.314 99.5203 354.994 97.4332 358.535 99.7669C360.648 101.16 361.258 103.983 360.348 108.157C359.636 111.423 358.437 114.134 357.029 116.368C358.254 116.302 359.489 116.266 360.725 116.26C376.141 116.198 381.268 120.59 382.756 122.482C385.122 125.488 384.496 128.963 382.675 132.214C385.892 130.921 388.703 129.13 390.614 126.533C393.092 123.166 393.862 118.814 392.968 113.228C392.899 112.797 393.192 112.393 393.622 112.324C394.053 112.255 394.458 112.548 394.526 112.978C395.478 118.919 394.589 123.795 391.885 127.469C389.367 130.888 385.525 133.002 381.249 134.414C380.261 135.767 379.125 137.047 377.991 138.197C369.31 147 361.571 151.332 356.507 150.289ZM378.632 135.189C374.914 136.162 371.018 136.723 367.477 137.232C363.031 137.872 359.191 138.425 356.997 139.575C354.804 140.725 353.476 142.898 353.615 145.111C353.716 146.734 354.618 147.981 356.09 148.532C357.387 149.018 359.748 149.209 363.624 147.363C367.52 145.506 371.976 142.051 376.868 137.092C377.507 136.443 378.096 135.809 378.632 135.189ZM353.695 118.206C346.964 118.876 340.925 120.419 337.556 122.443C335.034 123.96 334.558 125.004 334.659 125.343C334.771 125.72 335.805 126.284 338.104 126.199C342.461 126.037 349.002 123.65 353.695 118.206Z" fill="black"/>
<path d="M42.6174 170.114C42.6174 170.064 42.6185 170.016 42.6209 169.967C42.6836 168.504 43.6208 166.747 47.7344 166.688C52.1307 166.624 55.7386 168.762 58.1651 172.871C60.4429 176.727 61.4765 181.923 61.5335 187.297C63.8205 188.898 66.2506 190.499 68.769 192.059C85.2702 202.281 102.689 209.142 115.361 210.414C122.418 211.122 126.292 209.291 127.204 204.814C128.386 199.028 124.607 189.898 119.304 181.033C116.296 179.979 113.311 178.446 110.4 176.449C104.825 172.624 99.6552 167.133 96.5694 161.76C95.3335 159.607 93.472 155.732 94.8928 153.959C95.3207 153.425 96.1776 152.897 97.8298 153.412C101.56 154.576 110.11 163.837 117.295 174.497C118.174 175.8 119.291 177.516 120.488 179.498C124.143 180.702 128.31 181.321 132.783 180.656C136.967 180.034 139.575 178.313 140.757 175.395C145.563 163.529 125.178 136.691 124.971 136.421C124.664 136.02 124.74 135.446 125.141 135.138C125.542 134.831 126.117 134.906 126.424 135.308C127.293 136.442 147.648 163.252 142.453 176.081C141.028 179.602 137.864 181.75 133.052 182.466C129.373 183.014 125.602 182.784 121.844 181.808C125.972 189.032 130.332 198.633 128.997 205.178C127.602 212.016 120.712 212.789 115.176 212.234C108.214 211.535 100.185 209.337 91.3117 205.701C83.5947 202.54 75.4651 198.36 67.8017 193.613C65.6809 192.299 63.5601 190.916 61.4998 189.498C61.2498 196.116 59.586 202.763 57.0001 207.3C54.4851 211.713 51.2842 214.046 47.7438 214.05C47.238 214.051 46.8275 213.64 46.8275 213.135L46.8275 213.134C46.8275 212.628 47.2368 212.218 47.7426 212.218C51.3365 212.215 53.8956 209.049 55.4095 206.393C58.0302 201.796 59.6627 194.935 59.7394 188.268C50.3447 181.599 42.6174 174.386 42.6174 170.114ZM59.7069 185.995C59.5081 181.429 58.5314 177.092 56.5885 173.801C54.4852 170.241 51.5144 168.463 47.76 168.518C45.6055 168.549 44.4917 169.063 44.4498 170.045C44.4091 170.892 44.9881 173.462 51.0889 179.056C53.4887 181.257 56.4222 183.615 59.7069 185.995ZM117.703 178.434C110.332 166.818 100.88 156.282 97.2868 155.161C96.695 154.976 96.3857 155.026 96.3229 155.105C96.0439 155.453 96.1276 157.313 98.1588 160.849C101.114 165.995 106.078 171.262 111.437 174.939C113.189 176.141 115.302 177.39 117.703 178.434Z" fill="black"/>
<path d="M60.0951 66.528C61.1176 49.8916 52.7515 34.6359 41.3406 32.0763L40.2673 31.8027L33.999 30.096C33.593 29.9921 33.1842 29.9023 32.7722 29.8284C26.5369 28.6999 20.5618 31.0594 15.9481 36.4726C11.5572 41.6242 8.85962 49.0069 8.35253 57.2627C7.84543 65.5184 9.58589 73.7045 13.2544 80.315C17.1088 87.2611 22.6657 91.7075 28.901 92.836C29.3127 92.9109 29.7238 92.9687 30.133 93.0135L36.7257 93.7223C36.8869 93.6994 37.043 93.672 37.1955 93.6426C41.4973 94.2854 45.723 93.0916 49.4476 90.1623C55.4983 85.4029 59.4791 76.5675 60.0951 66.528Z" fill="black"/>
<path d="M48.4073 88.8309C54.0841 84.365 57.8246 75.9893 58.4126 66.4233C59.4032 50.3057 51.3318 35.5903 40.4042 33.61C36.4259 32.8902 32.4887 33.9535 29.0164 36.6838C23.3397 41.1497 19.5991 49.5254 19.0111 59.0914C18.0205 75.209 26.099 89.9253 37.0195 91.9047C40.9978 92.6245 44.9361 91.5614 48.4073 88.8309Z" fill="white"/>
<path d="M60.0952 66.5273C61.136 49.5829 52.4389 34.0681 40.7027 31.9452C36.2368 31.1365 31.835 32.3145 27.9736 35.352C21.9242 40.1107 17.9434 48.9461 17.3263 58.9853C16.3234 75.3097 24.3599 90.3047 35.4407 93.2798C35.8621 93.393 36.2892 93.4888 36.719 93.5665C41.1849 94.3752 45.5867 93.1972 49.4481 90.1597C55.4983 85.4022 59.4791 76.5669 60.0952 66.5273ZM19.0106 59.09C19.5984 49.5251 23.3382 41.1481 29.0159 36.6824C32.4881 33.9522 36.4254 32.8889 40.4037 33.6087C51.331 35.5899 59.4024 50.3053 58.4121 66.4219C57.8243 75.9869 54.0845 84.3639 48.4068 88.8295C44.9345 91.5598 40.9973 92.6231 37.019 91.9033C26.0982 89.9249 18.02 75.2077 19.0106 59.09Z" fill="black"/>
<path d="M45.8535 81.313C49.8699 78.1543 52.5157 72.2157 52.9333 65.4276C53.6359 53.9942 47.9341 43.5666 40.2229 42.1614C37.4412 41.6579 34.6851 42.403 32.2517 44.3166C28.2363 47.4756 25.5895 53.414 25.173 60.2014C24.4705 71.6347 30.1709 82.0714 37.8834 83.4676C40.6637 83.9727 43.4201 83.2267 45.8535 81.313Z" fill="white"/>
<path d="M54.6164 65.5319C55.3694 53.2707 49.0492 42.0362 40.5216 40.4978C37.2523 39.9054 34.0324 40.7664 31.2088 42.9871C26.8197 46.4385 23.9339 52.8358 23.487 60.0983C22.7611 71.9088 28.5994 82.7628 36.6495 84.9229C36.9565 85.0053 37.2679 85.0753 37.5817 85.1323C40.8511 85.7247 44.071 84.8637 46.8935 82.6427C51.2836 79.1916 54.1704 72.7945 54.6164 65.5319ZM25.1725 60.2022C25.5889 53.4148 28.2357 47.4764 32.2511 44.3175C34.6846 42.4038 37.4409 41.6578 40.2224 42.1622C47.9326 43.5672 53.6354 53.995 52.9328 65.4284C52.5161 72.2168 49.8693 78.1552 45.8529 81.3139C43.4205 83.2278 40.6634 83.9726 37.8826 83.4694C30.1704 82.0723 24.4699 71.6356 25.1725 60.2022Z" fill="black"/>
<path d="M43.9205 63.9811L43.9269 63.9219C46.6412 64.0858 48.02 62.891 48.1983 61.1226C48.3799 59.3258 47.3401 57.5276 45.7871 56.1787C44.8759 55.3342 43.8562 54.6443 42.5588 53.986L42.8639 50.9628L40.4013 50.0377L40.1127 52.8972C39.7615 52.7567 39.3948 52.6151 39.0093 52.4695C38.4428 52.2565 37.8673 52.0494 37.2988 51.8515L37.5893 48.9809L35.1296 48.0566L34.8278 51.0397C33.7403 50.7056 32.7934 50.4492 32.1472 50.3186L30.176 69.8263C30.8219 70.1542 31.7049 70.571 32.8065 71.0444L32.5445 73.64L35.0042 74.5644L35.2596 72.0405C35.4553 72.1162 35.6541 72.1916 35.8588 72.2687C36.6491 72.566 37.3846 72.8213 38.0777 73.0432L37.8172 75.6214L40.2798 76.5465L40.5637 73.732C42.6113 74.1947 44.1173 74.2295 45.2166 73.9197C46.7721 73.4635 47.8838 72.4134 48.0654 70.6165C48.3243 68.0526 46.5242 65.6016 43.9205 63.9811ZM37.0741 55.2597C37.529 55.3693 38.1931 55.5582 39.336 55.987C41.7252 56.885 42.9958 58.1885 42.8434 59.6917C42.6949 61.1645 41.1068 61.5782 38.3367 60.5369L36.6056 59.886L37.0741 55.2597ZM37.7538 69.5234C36.8529 69.1848 36.2303 68.9503 35.7165 68.6968L36.2826 63.0977L38.0832 63.7746C40.7132 64.7636 42.7456 66.3536 42.5433 68.357C42.3319 70.4495 40.142 70.4211 37.7538 69.5234ZM134.817 86.596C135.839 69.9699 127.485 54.7301 116.083 52.1497L114.989 51.8706L108.721 50.1639C108.315 50.0601 107.906 49.9703 107.494 49.8964C101.259 48.7679 95.285 51.1276 90.6702 56.5405C86.2793 61.6922 83.5817 69.0749 83.0747 77.3307C82.5676 85.5864 84.308 93.7725 87.9765 100.383C91.831 107.329 97.3879 111.775 103.623 112.904C104.035 112.979 104.446 113.037 104.855 113.082L111.448 113.79C111.609 113.767 111.765 113.74 111.918 113.711C116.219 114.354 120.445 113.16 124.17 110.23C130.219 105.471 134.2 96.6352 134.817 86.596Z" fill="black"/>
<path d="M123.127 108.897C128.804 104.431 132.544 96.0556 133.132 86.4897C134.123 70.373 126.048 55.6588 115.123 53.6761C111.145 52.9563 107.207 54.0196 103.735 56.7499C98.0588 61.2148 94.3179 69.5915 93.7299 79.1575C92.7393 95.2751 100.818 109.991 111.738 111.971C115.718 112.691 119.656 111.628 123.127 108.897Z" fill="white"/>
<path d="M134.818 86.597C135.859 69.6525 127.163 54.1454 115.426 52.0149C110.961 51.2064 106.559 52.3845 102.697 55.4217C96.6462 60.1801 92.6664 69.0157 92.0491 79.056C91.0461 95.3804 99.0826 110.375 110.163 113.35C110.585 113.464 111.012 113.559 111.442 113.637C115.908 114.446 120.308 113.268 124.171 110.23C130.22 105.472 134.201 96.6363 134.818 86.597ZM93.7326 79.1594C94.3204 69.5945 98.0602 61.2175 103.738 56.7518C107.209 54.0213 111.147 52.9583 115.126 53.6781C126.05 55.6617 134.124 70.3747 133.135 86.4916C132.547 96.0575 128.807 104.434 123.13 108.899C119.658 111.629 115.72 112.693 111.742 111.973C100.82 109.994 92.742 95.2771 93.7326 79.1594Z" fill="black"/>
<path d="M120.576 101.383C124.592 98.2241 127.238 92.2867 127.655 85.4983C128.357 74.0649 122.66 63.6312 114.945 62.2324C112.164 61.7289 109.408 62.474 106.974 64.3876C102.959 67.5456 100.312 73.484 99.8955 80.2724C99.1929 91.7057 104.891 102.142 112.606 103.539C115.386 104.043 118.144 103.297 120.576 101.383Z" fill="white"/>
<path d="M129.338 85.602C130.092 73.3408 123.767 62.1053 115.245 60.5683C111.975 59.9758 108.755 60.8369 105.932 63.0575C101.543 66.51 98.656 72.906 98.2101 80.1687C97.4842 91.9792 103.323 102.833 111.373 104.993C111.68 105.076 111.991 105.146 112.305 105.203C115.574 105.795 118.794 104.934 121.618 102.713C126.006 99.2617 128.892 92.8647 129.338 85.602ZM99.8946 80.2724C100.311 73.484 102.958 67.5466 106.973 64.3877C109.407 62.474 112.163 61.728 114.945 62.2324C122.661 63.6305 128.357 74.0652 127.654 85.4983C127.237 92.2867 124.591 98.2241 120.575 101.383C118.142 103.297 115.386 104.043 112.604 103.538C104.89 102.143 99.192 91.7057 99.8946 80.2724Z" fill="black"/>
<path d="M114.513 68.9847L107.463 81.7427C107.285 82.0646 107.378 82.4637 107.684 82.6886L113.861 87.225C114.139 87.4288 114.524 87.4377 114.808 87.2451L120.96 83.0862C121.251 82.8893 121.365 82.5302 121.236 82.211L115.958 69.0756C115.714 68.4679 114.829 68.4122 114.513 68.9847Z" fill="black"/>
<path d="M107.498 84.2267L114.394 88.9088C114.464 88.957 114.56 88.9564 114.628 88.9076L120.802 84.594C120.971 84.4756 121.195 84.6565 121.098 84.8334L114.051 97.7895C113.975 97.9288 113.763 97.9232 113.693 97.7795L107.203 84.4573C107.117 84.2818 107.332 84.1139 107.498 84.2267Z" fill="black"/>
<path d="M228.437 48.9485C225.128 32.6117 213.097 20.0453 201.42 20.5374L200.318 20.5516L193.823 20.5293C193.404 20.5344 192.986 20.5536 192.569 20.5892C186.254 21.1168 181.093 24.9461 178.033 31.3718C175.122 37.4871 174.423 45.3181 176.064 53.4241C177.706 61.5301 181.501 68.9858 186.751 74.4192C192.268 80.1286 198.784 82.9818 205.098 82.4542C205.515 82.4197 205.927 82.3689 206.334 82.305L212.885 81.2792C213.034 81.2153 213.177 81.1483 213.318 81.0803C217.639 80.5862 221.414 78.3357 224.254 74.5399C228.87 68.3729 230.433 58.8058 228.437 48.9485Z" fill="black"/>
<path d="M222.902 73.5202C227.234 67.7347 228.683 58.6729 226.781 49.2803C223.577 33.4559 211.978 21.335 200.913 22.2563C196.885 22.5931 193.356 24.6417 190.707 28.1798C186.377 33.9663 184.926 43.0271 186.828 52.4196C189.918 67.6758 200.816 79.4924 211.504 79.4924C211.902 79.4924 212.298 79.4762 212.695 79.4427C216.725 79.1068 220.254 77.0583 222.902 73.5202Z" fill="white"/>
<path d="M228.438 48.9465C225.068 32.3083 212.652 19.5806 200.777 20.5739C196.256 20.9514 192.308 23.2313 189.362 27.1671C184.746 33.3331 183.183 42.9002 185.179 52.7575C188.425 68.7858 200.06 81.1838 211.532 81.1838C211.968 81.1838 212.406 81.1655 212.841 81.129C217.364 80.7515 221.31 78.4716 224.257 74.5358C228.87 68.3708 230.434 58.8037 228.438 48.9465ZM186.832 52.4216C184.93 43.0301 186.38 33.9683 190.711 28.1817C193.36 24.6437 196.889 22.5951 200.917 22.2582C211.982 21.337 223.58 33.4569 226.785 49.2823C228.687 58.6739 227.238 67.7357 222.906 73.5222C220.257 77.0602 216.729 79.1088 212.7 79.4457C212.303 79.4792 211.907 79.4954 211.509 79.4954C200.82 79.4944 189.922 67.6788 186.832 52.4216Z" fill="black"/>
<path d="M218.5 66.9254C221.563 62.8323 222.586 56.4106 221.236 49.7454C219.043 38.9202 211.338 30.5352 203.789 30.5352C203.51 30.5352 203.23 30.5463 202.952 30.5697C200.135 30.8051 197.665 32.2398 195.809 34.7196C192.745 38.8126 191.723 45.2353 193.072 51.9005C195.345 63.1266 203.544 71.7247 211.356 71.0763C214.173 70.8399 216.644 69.4052 218.5 66.9254Z" fill="white"/>
<path d="M222.89 49.4087C220.451 37.3709 211.444 28.1529 202.813 28.8845C199.502 29.1604 196.614 30.8275 194.46 33.705C191.112 38.1786 189.975 45.1056 191.419 52.2365C193.768 63.8329 202.21 72.8014 210.543 72.8004C210.861 72.8004 211.18 72.7872 211.497 72.7608C214.808 72.4848 217.696 70.8177 219.85 67.9402C223.198 63.4676 224.334 56.5396 222.89 49.4087ZM193.073 51.8997C191.723 45.2345 192.746 38.8118 195.81 34.7187C197.666 32.2389 200.136 30.8042 202.953 30.5688C203.233 30.5454 203.511 30.5343 203.791 30.5343C211.34 30.5343 219.045 38.9193 221.237 49.7446C222.587 56.4088 221.564 62.8315 218.501 66.9245C216.645 69.4043 214.175 70.8401 211.358 71.0744C203.546 71.7248 195.347 63.1257 193.073 51.8997Z" fill="black"/>
<path d="M198.68 45.2857L208.136 52.4826L210.76 40.3495L215.057 52.162L218.213 50.7648C217.953 49.3139 217.562 47.8396 217.028 46.3724C213.832 37.5846 206.821 32.418 201.369 34.8318C195.917 37.2457 194.088 46.3257 197.284 55.1136C197.864 56.7096 198.573 58.1839 199.372 59.5171L203.234 57.8075L198.68 45.2857Z" fill="black"/>
<path d="M211.505 49.2109L209.941 57.1718L203.576 52.4801L206.402 60.2482L201.461 62.4358C204.904 66.469 209.277 68.2812 212.945 66.6567C216.763 64.9663 218.801 60.0067 218.585 54.1685L214.041 56.1805L211.505 49.2109Z" fill="black"/>
<path d="M440.726 33.1597C437.417 16.8208 425.382 4.25241 413.705 4.74857L412.607 4.76278L406.112 4.74046C405.693 4.74553 405.275 4.76481 404.858 4.80032C398.543 5.32794 393.382 9.15721 390.322 15.583C387.411 21.6982 386.712 29.5293 388.354 37.6353C389.995 45.7413 393.79 53.1969 399.04 58.6304C404.557 64.3398 411.073 67.193 417.387 66.6654C417.804 66.6309 418.216 66.5801 418.623 66.5162L425.174 65.4904C425.324 65.4265 425.466 65.3595 425.607 65.2915C429.928 64.7974 433.703 62.5469 436.543 58.7511C441.16 52.5841 442.722 43.017 440.726 33.1597Z" fill="black"/>
<path d="M435.195 57.7385C439.525 51.9519 440.975 42.8911 439.073 33.4986C435.983 18.2423 425.086 6.42578 414.398 6.42578C414 6.42578 413.603 6.44201 413.206 6.4755C409.179 6.81236 405.649 8.86093 403 12.399C398.669 18.1845 397.219 27.2463 399.121 36.6389C402.212 51.8951 413.109 63.7117 423.797 63.7117C424.195 63.7117 424.592 63.6954 424.988 63.662C429.017 63.3251 432.546 61.2765 435.195 57.7385Z" fill="white"/>
<path d="M440.727 33.1614C437.358 16.5233 424.94 3.79454 413.067 4.78889C408.544 5.16634 404.597 7.44624 401.651 11.382C397.035 17.548 395.472 27.1151 397.468 36.9734C400.715 53.0018 412.349 65.3997 423.821 65.3997C424.258 65.3997 424.695 65.3814 425.13 65.3449C429.653 64.9675 433.599 62.6876 436.546 58.7518C441.16 52.5858 442.723 43.0187 440.727 33.1614ZM399.121 36.6366C397.219 27.245 398.669 18.1832 403 12.3967C405.649 8.85863 409.178 6.81006 413.206 6.4732C413.603 6.43971 414 6.42348 414.398 6.42348C425.086 6.42348 435.984 18.24 439.073 33.4962C440.975 42.8878 439.526 51.9496 435.194 57.7361C432.546 61.2742 429.017 63.3227 424.988 63.6596C424.592 63.6931 424.195 63.7093 423.797 63.7093C413.109 63.7093 402.212 51.8938 399.121 36.6366Z" fill="black"/>
<path d="M430.788 51.1403C433.851 47.0472 434.874 40.6245 433.524 33.9603C431.332 23.135 423.627 14.75 416.078 14.75C415.798 14.75 415.519 14.7612 415.241 14.7845C412.424 15.0199 409.954 16.4546 408.097 18.9344C405.034 23.0275 404.011 29.4502 405.361 36.1154C407.635 47.3414 415.831 55.9416 423.646 55.2912C426.463 55.0548 428.933 53.6201 430.788 51.1403Z" fill="white"/>
<path d="M435.179 33.6235C432.741 21.5858 423.734 12.3677 415.101 13.0993C411.79 13.3753 408.902 15.0423 406.749 17.9199C403.401 22.3924 402.264 29.3204 403.708 36.4514C406.057 48.0478 414.499 57.0152 422.832 57.0152C423.15 57.0152 423.469 57.002 423.787 56.9756C427.098 56.6996 429.985 55.0326 432.138 52.155C435.487 47.6825 436.623 40.7545 435.179 33.6235ZM405.362 36.1145C404.012 29.4493 405.035 23.0266 408.098 18.9335C409.955 16.4537 412.425 15.019 415.241 14.7836C415.521 14.7603 415.799 14.7491 416.079 14.7491C423.628 14.7491 431.334 23.1341 433.525 33.9594C434.875 40.6246 433.852 47.0463 430.789 51.1394C428.934 53.6192 426.463 55.0539 423.646 55.2893C415.832 55.9417 407.636 47.3406 405.362 36.1145Z" fill="black"/>
<path d="M423.605 22.9654C421.192 21.9721 418.544 22.0715 414.849 23.4494C412.627 24.2784 410.574 25.2372 409.056 26.1504L411.893 35.1036L408.977 36.1913L410.506 41.018L413.422 39.9303L416.303 49.0215C417.455 48.7851 419.126 48.3549 421.407 47.5046C425.217 46.0831 428.028 43.9534 429.432 41.1509C430.707 38.5514 431.089 34.9707 429.677 30.5134C428.374 26.403 426.194 24.0095 423.605 22.9654ZM421.055 43.0381C420.507 43.2431 419.9 43.4683 419.492 43.5049L417.837 38.2835L420.444 37.3115L418.914 32.4848L416.308 33.4568L414.664 28.27C415.006 28.0265 415.609 27.6855 416.59 27.3203C420.372 25.9099 423.549 27.5841 425.054 32.432C426.817 37.9933 425.05 41.5872 421.055 43.0381Z" fill="black"/>
<path d="M324.956 59.3089C321.646 42.965 309.615 30.3874 297.926 30.8978L296.838 30.912L290.342 30.8897C289.923 30.8948 289.505 30.914 289.088 30.9496C282.774 31.4772 277.612 35.3065 274.553 41.7322C271.642 47.8475 270.942 55.6785 272.584 63.7845C274.226 71.8906 278.021 79.3462 283.271 84.7796C288.787 90.489 295.303 93.3422 301.617 92.8146C302.034 92.7801 302.446 92.7294 302.853 92.6654L309.404 91.6396C309.554 91.5757 309.698 91.5087 309.837 91.4408C314.159 90.9466 317.932 88.6961 320.773 84.9003C325.389 78.7343 326.953 69.1672 324.956 59.3089Z" fill="black"/>
<path d="M319.425 83.8819C323.755 78.0954 325.206 69.0347 323.304 59.6421C320.099 43.8177 308.503 31.7028 297.437 32.619C293.408 32.9559 289.879 35.0045 287.23 38.5426C282.9 44.3291 281.45 53.3898 283.352 62.7824C286.556 78.6068 298.159 90.7247 309.219 89.8055C313.247 89.4686 316.777 87.42 319.425 83.8819Z" fill="white"/>
<path d="M324.954 59.3065C321.584 42.6694 309.177 29.9336 297.293 30.934C292.77 31.3115 288.823 33.5914 285.877 37.5272C281.263 43.6932 279.699 53.2603 281.695 63.1176C284.941 79.1459 296.575 91.5448 308.047 91.5438C308.483 91.5438 308.92 91.5256 309.355 91.489C313.878 91.1116 317.826 88.8317 320.771 84.8959C325.387 78.7319 326.951 69.1648 324.954 59.3065ZM283.349 62.7827C281.447 53.3912 282.896 44.3294 287.227 38.5429C289.876 35.0048 293.405 32.9562 297.434 32.6194C308.5 31.7031 320.096 43.818 323.301 59.6424C325.203 69.0339 323.753 78.0957 319.422 83.8822C316.773 87.4203 313.244 89.4689 309.216 89.8058C298.156 90.725 286.553 78.6071 283.349 62.7827Z" fill="black"/>
<path d="M315.019 77.288C318.083 73.1949 319.105 66.7722 317.756 60.108C315.482 48.883 307.282 40.29 299.471 40.9322C296.654 41.1676 294.184 42.6023 292.328 45.0821C289.265 49.1752 288.242 55.5979 289.592 62.2621C291.865 73.4881 300.066 82.0873 307.876 81.4379C310.692 81.2025 313.162 79.7678 315.019 77.288Z" fill="white"/>
<path d="M319.41 59.7714C316.972 47.7326 307.966 38.5216 299.332 39.2471C296.021 39.5231 293.133 41.1902 290.979 44.0677C287.631 48.5402 286.495 55.4682 287.938 62.5992C290.287 74.1955 298.729 83.165 307.062 83.163C307.38 83.163 307.699 83.1498 308.017 83.1234C311.328 82.8474 314.215 81.1804 316.368 78.3028C319.718 73.8303 320.854 66.9023 319.41 59.7714ZM289.593 62.2623C288.243 55.5981 289.266 49.1754 292.329 45.0823C294.186 42.6025 296.656 41.1678 299.472 40.9324C307.283 40.2902 315.484 48.8832 317.757 60.1082C319.107 66.7734 318.084 73.1961 315.02 77.2882C313.165 79.768 310.694 81.2027 307.878 81.4381C300.068 82.0885 291.867 73.4884 289.593 62.2623Z" fill="black"/>
<path d="M311.239 66.5893C310.987 65.9409 311.087 66.1743 310.798 65.5736C310.445 64.9659 310.581 65.183 310.201 64.63C309.635 63.9441 309.83 64.1602 309.341 63.6681C308.844 63.244 309.04 63.3952 308.489 63.0025C307.938 62.6839 308.154 62.7925 307.554 62.5236C306.937 62.3257 307.165 62.3856 306.561 62.2699C305.918 62.2314 306.154 62.2314 305.533 62.2801C304.91 62.4201 305.113 62.3603 304.628 62.5348C303.69 62.9822 303.574 63.1537 302.156 64.4636C300.598 65.7076 300.965 65.4529 300.369 65.7766C299.817 65.9937 300.031 65.9257 299.438 66.0789C298.83 66.1631 299.073 66.1428 298.364 66.1601C297.603 66.0941 297.924 66.1398 296.939 65.947L296.016 65.6436L295.988 65.601L295.895 65.6244C295.884 65.6629 295.861 65.7289 295.863 65.7451C295.866 65.7634 296.281 66.3377 296.969 67.3066C298.18 68.7901 297.709 68.2442 299.018 69.6941C301.089 71.6899 300.278 70.9837 302.543 72.7969L304.413 74.0104L306.349 74.9976C308.569 75.8408 308.342 75.7698 308.493 75.7769C308.727 75.7617 308.94 75.6693 309.094 75.4826C309.135 75.4217 308.966 75.7211 311.118 71.8482C311.324 71.4484 311.254 71.6026 311.428 71.1744C311.565 70.7382 311.517 70.9157 311.633 70.3851C311.702 69.8169 311.684 70.0259 311.708 69.4749C311.671 68.4309 311.627 68.3142 311.437 67.2884C311.325 66.846 311.369 67.0073 311.239 66.5893Z" fill="black"/>
<path d="M297.252 64.8097C297.956 64.9142 297.687 64.8939 298.428 64.9081C299.164 64.8279 298.898 64.8715 299.589 64.7072C299.98 64.5743 299.843 64.625 300.184 64.485C300.773 64.1826 300.58 64.2942 301.04 63.999C301.465 63.6651 301.296 63.8133 301.786 63.3333C302.236 62.7662 302.082 62.9833 302.449 62.3857C302.764 61.7028 302.66 61.9605 302.893 61.2594C303.063 60.4731 303.013 60.7673 303.103 59.9739C303.119 59.0962 303.126 59.4229 303.062 58.5473C302.91 57.5894 302.98 57.9446 302.751 56.9969C302.564 56.2663 302.622 56.519 302.491 55.8848C302.354 54.93 302.388 55.2659 302.336 54.4045C302.349 53.7135 302.332 53.9753 302.404 53.265C302.537 52.571 302.478 52.8216 302.665 52.1773C303.532 50.215 303.177 50.9445 304.194 48.9883C301.262 49.4165 301.859 49.314 301.111 49.4854C298.87 50.1511 299.661 49.87 297.639 50.6969C295.55 51.8232 296.283 51.3707 294.423 52.6542C292.648 54.1751 293.28 53.5806 291.678 55.2689C291.443 55.5591 291.399 55.6809 291.345 55.9031C291.298 56.2481 291.355 56.4256 291.462 56.7331C293.303 61.5618 293.095 61.2087 294.033 62.613C294.457 63.1365 294.29 62.9488 294.759 63.4389C295.224 63.8498 295.042 63.7047 295.549 64.0781C296.046 64.3784 295.854 64.276 296.387 64.5337C296.901 64.7244 296.701 64.6625 297.252 64.8097Z" fill="black"/>
<path d="M313.492 57.0526C313.179 54.314 313.32 55.2749 312.864 52.8895C312.314 50.8379 312.393 51.0713 312.245 50.7669C312.125 50.5629 312.001 50.365 311.798 50.2474C311.053 49.8932 311.316 50.0089 310.642 49.7339C309.563 49.3879 309.955 49.4904 308.928 49.2723C307.89 49.1658 308.271 49.185 307.273 49.1972C306.7 49.2733 306.874 49.2408 306.489 49.3362C305.936 49.5391 306.133 49.4539 305.637 49.7136C305.151 50.0505 305.323 49.9176 304.896 50.2981C304.488 50.7547 304.63 50.5791 304.284 51.0652C303.965 51.6242 304.073 51.4132 303.816 51.9885C303.597 52.6328 303.668 52.3923 303.511 53.0407C303.403 53.7529 303.433 53.4892 303.387 54.1943C303.4 54.9573 303.385 54.6763 303.458 55.421C303.601 56.2155 303.532 55.8999 303.77 56.8131C304.064 57.6613 303.94 57.3509 304.306 58.1738C304.624 58.7562 304.495 58.5421 304.865 59.1103C305.251 59.6125 305.095 59.4289 305.536 59.9149C306.01 60.3603 305.811 60.1888 306.421 60.6657C307.115 61.1041 306.854 60.9539 307.563 61.3131C308.58 61.8184 308.203 61.6053 309.213 62.2313C309.848 62.7173 309.622 62.5296 310.192 63.0542C310.657 63.5686 310.492 63.3728 310.905 63.9166C311.485 64.8359 311.316 64.499 312.562 67.5876L312.667 67.5673C313.026 65.6598 312.913 66.2676 313.175 64.8653C313.518 62.1522 313.429 63.2409 313.584 60.1513C313.568 58.1798 313.591 58.885 313.492 57.0526Z" fill="black"/>
<path d="M476.238 142.856C472.928 126.512 460.901 113.935 449.208 114.445L448.119 114.459L441.623 114.437C441.204 114.442 440.786 114.461 440.369 114.496C434.055 115.024 428.894 118.853 425.834 125.279C422.923 131.394 422.223 139.225 423.865 147.331C425.507 155.437 429.302 162.893 434.552 168.326C440.069 174.036 446.584 176.889 452.898 176.361C453.316 176.327 453.727 176.276 454.134 176.212L460.685 175.186C460.835 175.123 460.979 175.056 461.119 174.988C465.44 174.493 469.213 172.243 472.055 168.447C476.671 162.281 478.234 152.714 476.238 142.856Z" fill="black"/>
<path d="M470.706 167.433C475.036 161.647 476.487 152.585 474.585 143.193C471.38 127.368 459.784 115.254 448.718 116.17C444.689 116.507 441.161 118.555 438.512 122.093C434.181 127.88 432.731 136.941 434.633 146.333C437.838 162.158 449.439 174.277 460.501 173.356C464.528 173.019 468.057 170.971 470.706 167.433Z" fill="white"/>
<path d="M476.239 142.857C472.869 126.22 460.467 113.484 448.578 114.485C444.056 114.862 440.109 117.142 437.163 121.078C432.547 127.244 430.984 136.811 432.98 146.669C436.226 162.698 447.861 175.097 459.333 175.096C459.769 175.096 460.207 175.077 460.642 175.041C465.164 174.663 469.111 172.384 472.058 168.448C476.672 162.283 478.235 152.716 476.239 142.857ZM434.633 146.334C432.731 136.941 434.181 127.88 438.512 122.094C441.161 118.556 444.689 116.507 448.718 116.17C459.784 115.254 471.38 127.369 474.585 143.193C476.487 152.585 475.037 161.647 470.706 167.433C468.058 170.971 464.529 173.02 460.5 173.357C449.44 174.277 437.839 162.158 434.633 146.334Z" fill="black"/>
<path d="M466.301 160.839C469.364 156.746 470.387 150.323 469.037 143.659C466.763 132.433 458.567 123.839 450.752 124.483C447.935 124.719 445.465 126.153 443.609 128.633C440.546 132.726 439.523 139.149 440.873 145.813C443.147 157.039 451.342 165.638 459.158 164.989C461.976 164.753 464.445 163.319 466.301 160.839Z" fill="white"/>
<path d="M470.691 143.322C468.252 131.284 459.243 122.071 450.612 122.798C447.302 123.074 444.414 124.741 442.261 127.619C438.912 132.091 437.776 139.019 439.22 146.15C441.568 157.747 450.01 166.716 458.344 166.714C458.662 166.714 458.98 166.701 459.298 166.674C462.609 166.398 465.497 164.731 467.65 161.854C470.998 157.381 472.135 150.453 470.691 143.322ZM440.874 145.813C439.524 139.148 440.547 132.725 443.61 128.633C445.465 126.154 447.936 124.719 450.753 124.483C458.566 123.839 466.764 132.433 469.038 143.659C470.388 150.324 469.365 156.747 466.302 160.839C464.445 163.319 461.976 164.754 459.159 164.989C451.343 165.64 443.147 157.039 440.874 145.813Z" fill="black"/>
<path d="M452.81 130.617L443.688 135.494L453.977 140.117L462.802 135.26L452.81 130.617Z" fill="black"/>
<path d="M443.375 137.25L447.39 154.192L457.734 158.363L453.848 141.973L443.375 137.25Z" fill="black"/>
<path d="M463.865 136.969L456.016 141.305L457.693 148.374L467.585 152.647L463.865 136.969Z" fill="black"/>
<defs>
<linearGradient id="paint0_linear_1974_5363" x1="26.0313" y1="107.637" x2="501.582" y2="107.637" gradientUnits="userSpaceOnUse">
<stop stop-color="#84FAB0"/>
<stop offset="1" stop-color="#8FD3F4"/>
</linearGradient>
</defs>
</svg>
